<?xml version="1.0" standalone="no"?><!DOCTYPE svg PUBLIC "-//W3C//DTD SVG 1.1//EN" "http://www.w3.org/Graphics/SVG/1.1/DTD/svg11.dtd"><svg t="1629182899337" class="icon" viewBox="0 0 1024 1024" version="1.1" xmlns="http://www.w3.org/2000/svg" p-id="731" xmlns:xlink="http://www.w3.org/1999/xlink" width="128" height="128"><defs><style type="text/css"></style></defs><path d="M738.14841 166.44523H369.074205c-61.512367 0-112.169611 47.038869-123.024735 108.551236-61.512367 7.236749-112.169611 57.893993-112.169611 123.024735v369.074205c0 68.749117 54.275618 123.024735 123.024735 123.024735h369.074205c61.512367 0 112.169611-47.038869 123.024735-108.551236 61.512367-7.236749 112.169611-57.893993 112.169611-123.024735V289.469965c0-68.749117-54.275618-123.024735-123.024735-123.024735z m-141.116608 669.399293H289.469965c-57.893993 0-101.314488-47.038869-101.314488-101.314488v-307.561837c0-39.80212 25.328622-75.985866 57.893993-90.459364 14.473498-10.855124 28.946996-14.473498 43.420495-14.473498h307.561837c57.893993 0 101.314488 47.038869 101.314488 101.314487v307.561838c0 18.091873-3.618375 32.565371-10.855124 47.038869-18.091873 36.183746-50.657244 57.893993-90.459364 57.893993z m213.484099-209.865724c0 39.80212-25.328622 75.985866-57.893993 90.459364v-325.653711c0-68.749117-54.275618-123.024735-123.024735-123.024735H311.180212C325.65371 238.812721 361.837456 217.102473 401.639576 217.102473h307.561837c57.893993 0 101.314488 47.038869 101.314488 101.314488v307.561838z" p-id="732"></path><path d="M376.310954 452.29682c28.946996 0 50.657244-21.710247 50.657244-50.657244 0-28.946996-21.710247-50.657244-50.657244-50.657244S325.65371 372.69258 325.65371 401.639576c0 28.946996 21.710247 50.657244 50.657244 50.657244zM376.310954 687.491166c28.946996 0 50.657244-21.710247 50.657244-50.657244s-21.710247-50.657244-50.657244-50.657244c-28.946996 0-50.657244 21.710247-50.657244 50.657244s25.328622 50.657244 50.657244 50.657244zM379.929329 466.770318c-28.946996 0-50.657244 21.710247-50.657244 50.657244s21.710247 50.657244 50.657244 50.657244c28.946996 0 50.657244-21.710247 50.657243-50.657244s-21.710247-50.657244-50.657243-50.657244zM524.664311 571.70318c28.946996 0 50.657244-21.710247 50.657244-50.657244s-21.710247-50.657244-50.657244-50.657243c-28.946996 0-50.657244 21.710247-50.657244 50.657243s21.710247 50.657244 50.657244 50.657244zM524.664311 705.583039c-28.946996 0-50.657244 21.710247-50.657244 50.657244s21.710247 50.657244 50.657244 50.657244 50.657244-21.710247 50.657244-50.657244-21.710247-50.657244-50.657244-50.657244z" p-id="733"></path></svg>